# xmcd CD database file
#
# Track frame offsets:
#	150
#	16251
#	32502
#	48740
#	63629
#	77605
#	92406
#	106782
#	121683
#	136634
#	151735
#	176886
#	191687
#
# Disc length: 2744 seconds
#
# Revision: 1
# Processed by: cddbd v1.5.2PL0 Copyright (c) Steve Scherf et al.
# Submitted via: CDex 1.51
#
DISCID=970ab60d
DTITLE=Various Artist - CitySky10
DYEAR=1995
DGENRE=Country
TTITLE0=LET IT BE ME 但願是我 
TTITLE1=TAMMY黛咪
TTITLE2=CHANGING PARTNERS 交換舞伴
TTITLE3=LOVE IS BLUE 愛是憂鬱
TTITLE4=OH, PRETTY WOMAN 美麗女子
TTITLE5=VENUS 維納斯
TTITLE6=SAVE YOUR KISSES FOR ME 留住你的吻
TTITLE7=I DON'T LIKE TO SLEEP ALONE 孤枕難眠
TTITLE8=ARE YOU LONESOME TONIGHT 今宵多寂寞
TTITLE9=LEMON TREE 檸檬樹
TTITLE10=UNICORN SONG 獨角獸之歌
TTITLE11=MONDAY MORNING 星期一早晨
TTITLE12=YOUNG LOVE 稚愛
EXTD=YEAR: 1995
EXTT0=
EXTT1=
EXTT2=
EXTT3=
EXTT4=
EXTT5=
EXTT6=
EXTT7=
EXTT8=
EXTT9=
EXTT10=
EXTT11=
EXTT12=
PLAYORDER=
